<mxfile host="app.diagrams.net" agent="Mozilla/5.0 (Macintosh; Intel Mac OS X 10_15_7) AppleWebKit/537.36 (KHTML, like Gecko) Chrome/134.0.0.0 Safari/537.36" version="26.2.13">
  <diagram name="Page-1" id="b5b7bab2-c9e2-2cf4-8b2a-24fd1a2a6d21">
    <mxGraphModel dx="2723" dy="1288" grid="1" gridSize="10" guides="1" tooltips="1" connect="1" arrows="1" fold="1" page="1" pageScale="1" pageWidth="827" pageHeight="1169" background="none" math="0" shadow="0">
      <root>
        <mxCell id="0" />
        <mxCell id="1" parent="0" />
        <mxCell id="kLlZz5dMnrhhOXo9dk1C-14" value="" style="rounded=0;whiteSpace=wrap;html=1;" vertex="1" parent="1">
          <mxGeometry x="338.5" y="140" width="940" height="330" as="geometry" />
        </mxCell>
        <mxCell id="6e0c8c40b5770093-72" value="" style="shape=folder;fontStyle=1;spacingTop=10;tabWidth=194;tabHeight=22;tabPosition=left;html=1;rounded=0;shadow=0;comic=0;labelBackgroundColor=none;strokeWidth=1;fillColor=none;fontFamily=Verdana;fontSize=10;align=center;" parent="1" vertex="1">
          <mxGeometry x="308" y="140" width="1001" height="940" as="geometry" />
        </mxCell>
        <mxCell id="kLlZz5dMnrhhOXo9dk1C-24" value="&lt;span style=&quot;color: rgba(0, 0, 0, 0); font-family: monospace; font-size: 0px; text-align: start; text-wrap-mode: nowrap;&quot;&gt;%3CmxGraphModel%3E%3Croot%3E%3CmxCell%20id%3D%220%22%2F%3E%3CmxCell%20id%3D%221%22%20parent%3D%220%22%2F%3E%3CmxCell%20id%3D%222%22%20value%3D%22%22%20style%3D%22rounded%3D0%3BwhiteSpace%3Dwrap%3Bhtml%3D1%3B%22%20vertex%3D%221%22%20parent%3D%221%22%3E%3CmxGeometry%20x%3D%22350%22%20y%3D%22150%22%20width%3D%22640%22%20height%3D%22280%22%20as%3D%22geometry%22%2F%3E%3C%2FmxCell%3E%3C%2Froot%3E%3C%2FmxGraphModel%3E&lt;/span&gt;" style="rounded=0;whiteSpace=wrap;html=1;" vertex="1" parent="1">
          <mxGeometry x="350" y="150" width="640" height="280" as="geometry" />
        </mxCell>
        <mxCell id="kLlZz5dMnrhhOXo9dk1C-122" value="" style="rounded=0;whiteSpace=wrap;html=1;" vertex="1" parent="1">
          <mxGeometry x="415.25" y="180" width="260" height="200" as="geometry" />
        </mxCell>
        <mxCell id="kLlZz5dMnrhhOXo9dk1C-15" value="" style="rounded=0;whiteSpace=wrap;html=1;" vertex="1" parent="1">
          <mxGeometry x="340" y="690" width="940" height="330" as="geometry" />
        </mxCell>
        <mxCell id="kLlZz5dMnrhhOXo9dk1C-28" value="" style="rounded=0;whiteSpace=wrap;html=1;" vertex="1" parent="1">
          <mxGeometry x="370" y="700" width="630" height="290" as="geometry" />
        </mxCell>
        <mxCell id="kLlZz5dMnrhhOXo9dk1C-43" value="" style="rounded=0;whiteSpace=wrap;html=1;" vertex="1" parent="1">
          <mxGeometry x="405" y="710" width="275" height="220" as="geometry" />
        </mxCell>
        <mxCell id="6e0c8c40b5770093-67" style="edgeStyle=none;rounded=0;html=1;entryX=0.43;entryY=0.173;entryPerimeter=0;dashed=1;labelBackgroundColor=none;startFill=0;endArrow=open;endFill=0;endSize=10;fontFamily=Verdana;fontSize=10;" parent="1" target="6e0c8c40b5770093-47" edge="1">
          <mxGeometry relative="1" as="geometry">
            <mxPoint x="696.9688379673071" y="714.5" as="sourcePoint" />
          </mxGeometry>
        </mxCell>
        <mxCell id="6e0c8c40b5770093-71" style="edgeStyle=elbowEdgeStyle;rounded=0;html=1;dashed=1;labelBackgroundColor=none;startFill=0;endArrow=open;endFill=0;endSize=10;fontFamily=Verdana;fontSize=10;elbow=vertical;" parent="1" target="6e0c8c40b5770093-25" edge="1">
          <mxGeometry relative="1" as="geometry">
            <mxPoint x="955.5" y="594.4545454545453" as="sourcePoint" />
          </mxGeometry>
        </mxCell>
        <mxCell id="6e0c8c40b5770093-64" style="edgeStyle=elbowEdgeStyle;rounded=0;html=1;entryX=0.559;entryY=0.251;entryPerimeter=0;dashed=1;labelBackgroundColor=none;startFill=0;endArrow=open;endFill=0;endSize=10;fontFamily=Verdana;fontSize=10;" parent="1" target="6e0c8c40b5770093-44" edge="1">
          <mxGeometry relative="1" as="geometry">
            <mxPoint x="710.5454545454545" y="594.5" as="sourcePoint" />
          </mxGeometry>
        </mxCell>
        <mxCell id="6e0c8c40b5770093-65" style="edgeStyle=none;rounded=0;html=1;dashed=1;labelBackgroundColor=none;startFill=0;endArrow=open;endFill=0;endSize=10;fontFamily=Verdana;fontSize=10;entryX=-0.003;entryY=0.411;entryPerimeter=0;" parent="1" target="6e0c8c40b5770093-45" edge="1">
          <mxGeometry relative="1" as="geometry">
            <mxPoint x="739.2069425189293" y="594.5" as="sourcePoint" />
          </mxGeometry>
        </mxCell>
        <mxCell id="6e0c8c40b5770093-68" style="edgeStyle=elbowEdgeStyle;rounded=0;html=1;entryX=0.628;entryY=0.26;entryPerimeter=0;dashed=1;labelBackgroundColor=none;startFill=0;endArrow=open;endFill=0;endSize=10;fontFamily=Verdana;fontSize=10;" parent="1" target="6e0c8c40b5770093-53" edge="1">
          <mxGeometry relative="1" as="geometry">
            <mxPoint x="657.8181818181815" y="904.5" as="sourcePoint" />
          </mxGeometry>
        </mxCell>
        <mxCell id="6e0c8c40b5770093-69" style="edgeStyle=elbowEdgeStyle;rounded=0;html=1;entryX=0.643;entryY=0.246;entryPerimeter=0;dashed=1;labelBackgroundColor=none;startFill=0;endArrow=open;endFill=0;endSize=10;fontFamily=Verdana;fontSize=10;" parent="1" source="6e0c8c40b5770093-47" edge="1">
          <mxGeometry relative="1" as="geometry">
            <mxPoint x="827.0899999999997" y="971.7894795496327" as="targetPoint" />
          </mxGeometry>
        </mxCell>
        <mxCell id="6e0c8c40b5770093-70" style="edgeStyle=none;rounded=0;html=1;dashed=1;labelBackgroundColor=none;startFill=0;endArrow=open;endFill=0;endSize=10;fontFamily=Verdana;fontSize=10;exitX=1.003;exitY=0.363;exitPerimeter=0;" parent="1" target="6e0c8c40b5770093-25" edge="1">
          <mxGeometry relative="1" as="geometry">
            <mxPoint x="886.4959999999996" y="821.69" as="sourcePoint" />
          </mxGeometry>
        </mxCell>
        <mxCell id="6e0c8c40b5770093-58" style="rounded=0;html=1;dashed=1;labelBackgroundColor=none;startFill=0;endArrow=open;endFill=0;endSize=10;fontFamily=Verdana;fontSize=10;entryX=0.592;entryY=0.2;entryPerimeter=0;edgeStyle=elbowEdgeStyle;" parent="1" target="6e0c8c40b5770093-11" edge="1">
          <mxGeometry relative="1" as="geometry">
            <mxPoint x="526.9090909090905" y="244.5" as="sourcePoint" />
          </mxGeometry>
        </mxCell>
        <mxCell id="6e0c8c40b5770093-60" style="rounded=0;html=1;entryX=0.452;entryY=0.1;entryPerimeter=0;dashed=1;labelBackgroundColor=none;startFill=0;endArrow=open;endFill=0;endSize=10;fontFamily=Verdana;fontSize=10;" parent="1" target="6e0c8c40b5770093-33" edge="1">
          <mxGeometry relative="1" as="geometry">
            <mxPoint x="581.8287769784174" y="424.5" as="sourcePoint" />
          </mxGeometry>
        </mxCell>
        <mxCell id="6e0c8c40b5770093-61" style="edgeStyle=none;rounded=0;html=1;entryX=0.69;entryY=0.102;entryPerimeter=0;dashed=1;labelBackgroundColor=none;startFill=0;endArrow=open;endFill=0;endSize=10;fontFamily=Verdana;fontSize=10;" parent="1" source="6e0c8c40b5770093-20" edge="1">
          <mxGeometry relative="1" as="geometry">
            <mxPoint x="795.8499999999999" y="498.98" as="targetPoint" />
          </mxGeometry>
        </mxCell>
        <mxCell id="6e0c8c40b5770093-62" style="edgeStyle=none;rounded=0;html=1;dashed=1;labelBackgroundColor=none;startFill=0;endArrow=open;endFill=0;endSize=10;fontFamily=Verdana;fontSize=10;exitX=1.002;exitY=0.668;exitPerimeter=0;" parent="1" source="6e0c8c40b5770093-20" edge="1">
          <mxGeometry relative="1" as="geometry">
            <mxPoint x="1045.5" y="446.2804978399506" as="targetPoint" />
          </mxGeometry>
        </mxCell>
        <mxCell id="6e0c8c40b5770093-63" style="edgeStyle=orthogonalEdgeStyle;rounded=0;html=1;dashed=1;labelBackgroundColor=none;startFill=0;endArrow=open;endFill=0;endSize=10;fontFamily=Verdana;fontSize=10;" parent="1" target="6e0c8c40b5770093-25" edge="1">
          <mxGeometry relative="1" as="geometry">
            <Array as="points">
              <mxPoint x="665.5" y="359.5" />
              <mxPoint x="665.5" y="464.5" />
            </Array>
            <mxPoint x="641.5" y="359.5454545454543" as="sourcePoint" />
          </mxGeometry>
        </mxCell>
        <mxCell id="kLlZz5dMnrhhOXo9dk1C-1" value="CLOUD GSLB" style="rounded=0;whiteSpace=wrap;html=1;" vertex="1" parent="1">
          <mxGeometry x="170" y="550" width="120" height="60" as="geometry" />
        </mxCell>
        <mxCell id="kLlZz5dMnrhhOXo9dk1C-10" style="edgeStyle=orthogonalEdgeStyle;rounded=0;orthogonalLoop=1;jettySize=auto;html=1;exitX=0.5;exitY=0.5;exitDx=0;exitDy=0;exitPerimeter=0;entryX=0.5;entryY=0;entryDx=0;entryDy=0;" edge="1" parent="1" source="kLlZz5dMnrhhOXo9dk1C-2" target="kLlZz5dMnrhhOXo9dk1C-9">
          <mxGeometry relative="1" as="geometry">
            <mxPoint x="120" y="350" as="targetPoint" />
          </mxGeometry>
        </mxCell>
        <mxCell id="kLlZz5dMnrhhOXo9dk1C-2" value="Пользователи&lt;div&gt;&lt;br&gt;&lt;/div&gt;" style="shape=umlActor;verticalLabelPosition=bottom;verticalAlign=top;html=1;outlineConnect=0;" vertex="1" parent="1">
          <mxGeometry x="10" y="380" width="30" height="50" as="geometry" />
        </mxCell>
        <mxCell id="kLlZz5dMnrhhOXo9dk1C-17" style="edgeStyle=orthogonalEdgeStyle;rounded=0;orthogonalLoop=1;jettySize=auto;html=1;" edge="1" parent="1" source="kLlZz5dMnrhhOXo9dk1C-8" target="kLlZz5dMnrhhOXo9dk1C-1">
          <mxGeometry relative="1" as="geometry" />
        </mxCell>
        <mxCell id="kLlZz5dMnrhhOXo9dk1C-8" value="CLOUD WAF" style="rounded=0;whiteSpace=wrap;html=1;" vertex="1" parent="1">
          <mxGeometry x="-20" y="560" width="105" height="60" as="geometry" />
        </mxCell>
        <mxCell id="kLlZz5dMnrhhOXo9dk1C-13" style="edgeStyle=orthogonalEdgeStyle;rounded=0;orthogonalLoop=1;jettySize=auto;html=1;exitX=0.5;exitY=1;exitDx=0;exitDy=0;entryX=0.5;entryY=0;entryDx=0;entryDy=0;" edge="1" parent="1" source="kLlZz5dMnrhhOXo9dk1C-9" target="kLlZz5dMnrhhOXo9dk1C-8">
          <mxGeometry relative="1" as="geometry" />
        </mxCell>
        <mxCell id="kLlZz5dMnrhhOXo9dk1C-9" value="QRATOR" style="rounded=0;whiteSpace=wrap;html=1;" vertex="1" parent="1">
          <mxGeometry x="85" y="430" width="120" height="60" as="geometry" />
        </mxCell>
        <mxCell id="kLlZz5dMnrhhOXo9dk1C-18" value="tcp 443" style="text;html=1;align=center;verticalAlign=middle;whiteSpace=wrap;rounded=0;" vertex="1" parent="1">
          <mxGeometry x="70" y="380" width="60" height="30" as="geometry" />
        </mxCell>
        <mxCell id="kLlZz5dMnrhhOXo9dk1C-19" value="tcp 443" style="text;html=1;align=center;verticalAlign=middle;whiteSpace=wrap;rounded=0;" vertex="1" parent="1">
          <mxGeometry x="60" y="500" width="60" height="30" as="geometry" />
        </mxCell>
        <mxCell id="kLlZz5dMnrhhOXo9dk1C-20" value="tcp 443" style="text;html=1;align=center;verticalAlign=middle;whiteSpace=wrap;rounded=0;" vertex="1" parent="1">
          <mxGeometry x="100" y="550" width="60" height="30" as="geometry" />
        </mxCell>
        <mxCell id="kLlZz5dMnrhhOXo9dk1C-21" value="ЦОД 1" style="text;html=1;align=center;verticalAlign=middle;whiteSpace=wrap;rounded=0;" vertex="1" parent="1">
          <mxGeometry x="778.5" y="440" width="60" height="30" as="geometry" />
        </mxCell>
        <mxCell id="kLlZz5dMnrhhOXo9dk1C-22" value="ЦОД 2" style="text;html=1;align=center;verticalAlign=middle;whiteSpace=wrap;rounded=0;" vertex="1" parent="1">
          <mxGeometry x="778.5" y="990" width="60" height="30" as="geometry" />
        </mxCell>
        <mxCell id="kLlZz5dMnrhhOXo9dk1C-25" value="K8S" style="text;html=1;align=center;verticalAlign=middle;whiteSpace=wrap;rounded=0;" vertex="1" parent="1">
          <mxGeometry x="665" y="430" width="60" height="30" as="geometry" />
        </mxCell>
        <mxCell id="kLlZz5dMnrhhOXo9dk1C-26" value="" style="aspect=fixed;sketch=0;html=1;dashed=0;whitespace=wrap;verticalLabelPosition=bottom;verticalAlign=top;fillColor=#2875E2;strokeColor=#ffffff;points=[[0.005,0.63,0],[0.1,0.2,0],[0.9,0.2,0],[0.5,0,0],[0.995,0.63,0],[0.72,0.99,0],[0.5,1,0],[0.28,0.99,0]];shape=mxgraph.kubernetes.icon2;prIcon=ing" vertex="1" parent="1">
          <mxGeometry x="359" y="260" width="52.08" height="50" as="geometry" />
        </mxCell>
        <mxCell id="kLlZz5dMnrhhOXo9dk1C-30" value="K8S" style="text;html=1;align=center;verticalAlign=middle;whiteSpace=wrap;rounded=0;" vertex="1" parent="1">
          <mxGeometry x="930" y="960" width="60" height="30" as="geometry" />
        </mxCell>
        <mxCell id="kLlZz5dMnrhhOXo9dk1C-27" value="" style="aspect=fixed;sketch=0;html=1;dashed=0;whitespace=wrap;verticalLabelPosition=bottom;verticalAlign=top;fillColor=#2875E2;strokeColor=#ffffff;points=[[0.005,0.63,0],[0.1,0.2,0],[0.9,0.2,0],[0.5,0,0],[0.995,0.63,0],[0.72,0.99,0],[0.5,1,0],[0.28,0.99,0]];shape=mxgraph.kubernetes.icon2;prIcon=ing" vertex="1" parent="1">
          <mxGeometry x="359" y="819" width="54.17" height="52" as="geometry" />
        </mxCell>
        <mxCell id="kLlZz5dMnrhhOXo9dk1C-31" style="edgeStyle=orthogonalEdgeStyle;rounded=0;orthogonalLoop=1;jettySize=auto;html=1;entryX=0.005;entryY=0.63;entryDx=0;entryDy=0;entryPerimeter=0;" edge="1" parent="1" source="kLlZz5dMnrhhOXo9dk1C-1" target="kLlZz5dMnrhhOXo9dk1C-26">
          <mxGeometry relative="1" as="geometry">
            <Array as="points">
              <mxPoint x="320" y="580" />
              <mxPoint x="320" y="296" />
            </Array>
          </mxGeometry>
        </mxCell>
        <mxCell id="kLlZz5dMnrhhOXo9dk1C-33" style="edgeStyle=orthogonalEdgeStyle;rounded=0;orthogonalLoop=1;jettySize=auto;html=1;entryX=0.41;entryY=0.599;entryDx=0;entryDy=0;entryPerimeter=0;" edge="1" parent="1" source="kLlZz5dMnrhhOXo9dk1C-1" target="kLlZz5dMnrhhOXo9dk1C-27">
          <mxGeometry relative="1" as="geometry">
            <Array as="points">
              <mxPoint x="320" y="580" />
              <mxPoint x="320" y="874" />
              <mxPoint x="381" y="874" />
            </Array>
          </mxGeometry>
        </mxCell>
        <mxCell id="kLlZz5dMnrhhOXo9dk1C-34" value="tcp 443" style="text;html=1;align=center;verticalAlign=middle;whiteSpace=wrap;rounded=0;" vertex="1" parent="1">
          <mxGeometry x="310" y="640" width="60" height="30" as="geometry" />
        </mxCell>
        <mxCell id="kLlZz5dMnrhhOXo9dk1C-35" value="tcp 443" style="text;html=1;align=center;verticalAlign=middle;whiteSpace=wrap;rounded=0;" vertex="1" parent="1">
          <mxGeometry x="310" y="480" width="60" height="30" as="geometry" />
        </mxCell>
        <mxCell id="kLlZz5dMnrhhOXo9dk1C-72" style="edgeStyle=orthogonalEdgeStyle;rounded=0;orthogonalLoop=1;jettySize=auto;html=1;" edge="1" parent="1" source="kLlZz5dMnrhhOXo9dk1C-52" target="kLlZz5dMnrhhOXo9dk1C-71">
          <mxGeometry relative="1" as="geometry" />
        </mxCell>
        <mxCell id="kLlZz5dMnrhhOXo9dk1C-67" style="edgeStyle=orthogonalEdgeStyle;rounded=0;orthogonalLoop=1;jettySize=auto;html=1;" edge="1" parent="1" source="kLlZz5dMnrhhOXo9dk1C-53" target="kLlZz5dMnrhhOXo9dk1C-64">
          <mxGeometry relative="1" as="geometry" />
        </mxCell>
        <mxCell id="kLlZz5dMnrhhOXo9dk1C-53" value="" style="aspect=fixed;sketch=0;html=1;dashed=0;whitespace=wrap;verticalLabelPosition=bottom;verticalAlign=top;fillColor=#2875E2;strokeColor=#ffffff;points=[[0.005,0.63,0],[0.1,0.2,0],[0.9,0.2,0],[0.5,0,0],[0.995,0.63,0],[0.72,0.99,0],[0.5,1,0],[0.28,0.99,0]];shape=mxgraph.kubernetes.icon2;prIcon=ing" vertex="1" parent="1">
          <mxGeometry x="480" y="195" width="20" height="19.2" as="geometry" />
        </mxCell>
        <mxCell id="kLlZz5dMnrhhOXo9dk1C-58" value="ISTIO INGRESS" style="text;html=1;align=center;verticalAlign=middle;whiteSpace=wrap;rounded=0;" vertex="1" parent="1">
          <mxGeometry x="336.08" y="314" width="100" height="30" as="geometry" />
        </mxCell>
        <mxCell id="kLlZz5dMnrhhOXo9dk1C-68" value="tcp 443" style="text;html=1;align=center;verticalAlign=middle;whiteSpace=wrap;rounded=0;" vertex="1" parent="1">
          <mxGeometry x="308" y="265" width="60" height="30" as="geometry" />
        </mxCell>
        <mxCell id="kLlZz5dMnrhhOXo9dk1C-77" value="tcp 443 mtls" style="text;html=1;align=center;verticalAlign=middle;whiteSpace=wrap;rounded=0;" vertex="1" parent="1">
          <mxGeometry x="410" y="272" width="60" height="30" as="geometry" />
        </mxCell>
        <mxCell id="kLlZz5dMnrhhOXo9dk1C-89" value="tcp 443 mtls" style="text;html=1;align=center;verticalAlign=middle;whiteSpace=wrap;rounded=0;" vertex="1" parent="1">
          <mxGeometry x="815" y="235" width="60" height="30" as="geometry" />
        </mxCell>
        <mxCell id="kLlZz5dMnrhhOXo9dk1C-90" value="" style="rounded=0;whiteSpace=wrap;html=1;" vertex="1" parent="1">
          <mxGeometry x="1060" y="252" width="200" height="70" as="geometry" />
        </mxCell>
        <mxCell id="kLlZz5dMnrhhOXo9dk1C-92" value="POSTGRESQL CLUSTER (PATRONI)" style="text;html=1;align=center;verticalAlign=middle;whiteSpace=wrap;rounded=0;" vertex="1" parent="1">
          <mxGeometry x="1110" y="272" width="140" height="30.5" as="geometry" />
        </mxCell>
        <mxCell id="kLlZz5dMnrhhOXo9dk1C-94" value="tcp 5432 mtls" style="text;html=1;align=center;verticalAlign=middle;whiteSpace=wrap;rounded=0;" vertex="1" parent="1">
          <mxGeometry x="990" y="271" width="60" height="30" as="geometry" />
        </mxCell>
        <mxCell id="kLlZz5dMnrhhOXo9dk1C-38" value="ISTIO MESH" style="text;html=1;align=center;verticalAlign=middle;whiteSpace=wrap;rounded=0;" vertex="1" parent="1">
          <mxGeometry x="645" y="400" width="100" height="30" as="geometry" />
        </mxCell>
        <mxCell id="kLlZz5dMnrhhOXo9dk1C-44" value="" style="rounded=0;whiteSpace=wrap;html=1;" vertex="1" parent="1">
          <mxGeometry x="695" y="180" width="260" height="200" as="geometry" />
        </mxCell>
        <mxCell id="kLlZz5dMnrhhOXo9dk1C-45" value="NS FRONTEND" style="text;html=1;align=center;verticalAlign=middle;whiteSpace=wrap;rounded=0;" vertex="1" parent="1">
          <mxGeometry x="500" y="340" width="100" height="30" as="geometry" />
        </mxCell>
        <mxCell id="kLlZz5dMnrhhOXo9dk1C-46" value="NS BACKEND" style="text;html=1;align=center;verticalAlign=middle;whiteSpace=wrap;rounded=0;" vertex="1" parent="1">
          <mxGeometry x="770" y="350" width="100" height="30" as="geometry" />
        </mxCell>
        <mxCell id="kLlZz5dMnrhhOXo9dk1C-54" style="edgeStyle=orthogonalEdgeStyle;rounded=0;orthogonalLoop=1;jettySize=auto;html=1;entryX=0.005;entryY=0.63;entryDx=0;entryDy=0;entryPerimeter=0;" edge="1" parent="1" source="kLlZz5dMnrhhOXo9dk1C-26" target="kLlZz5dMnrhhOXo9dk1C-53">
          <mxGeometry relative="1" as="geometry">
            <Array as="points">
              <mxPoint x="442" y="287" />
              <mxPoint x="442" y="210" />
              <mxPoint x="469" y="210" />
            </Array>
          </mxGeometry>
        </mxCell>
        <mxCell id="kLlZz5dMnrhhOXo9dk1C-66" style="edgeStyle=orthogonalEdgeStyle;rounded=0;orthogonalLoop=1;jettySize=auto;html=1;entryX=0.5;entryY=0;entryDx=0;entryDy=0;" edge="1" parent="1" source="kLlZz5dMnrhhOXo9dk1C-64" target="kLlZz5dMnrhhOXo9dk1C-65">
          <mxGeometry relative="1" as="geometry" />
        </mxCell>
        <mxCell id="kLlZz5dMnrhhOXo9dk1C-64" value="KRAKEND" style="rounded=0;whiteSpace=wrap;html=1;" vertex="1" parent="1">
          <mxGeometry x="550" y="190" width="80" height="40" as="geometry" />
        </mxCell>
        <mxCell id="kLlZz5dMnrhhOXo9dk1C-65" value="NGINX" style="rounded=0;whiteSpace=wrap;html=1;" vertex="1" parent="1">
          <mxGeometry x="500" y="280" width="80" height="40" as="geometry" />
        </mxCell>
        <mxCell id="kLlZz5dMnrhhOXo9dk1C-70" value="tcp 443 mtls" style="text;html=1;align=center;verticalAlign=middle;whiteSpace=wrap;rounded=0;" vertex="1" parent="1">
          <mxGeometry x="585" y="230" width="60" height="30" as="geometry" />
        </mxCell>
        <mxCell id="kLlZz5dMnrhhOXo9dk1C-71" value="KRAKEND" style="rounded=0;whiteSpace=wrap;html=1;" vertex="1" parent="1">
          <mxGeometry x="850" y="204" width="80" height="40" as="geometry" />
        </mxCell>
        <mxCell id="kLlZz5dMnrhhOXo9dk1C-149" style="edgeStyle=orthogonalEdgeStyle;rounded=0;orthogonalLoop=1;jettySize=auto;html=1;" edge="1" parent="1" source="kLlZz5dMnrhhOXo9dk1C-73" target="kLlZz5dMnrhhOXo9dk1C-138">
          <mxGeometry relative="1" as="geometry" />
        </mxCell>
        <mxCell id="kLlZz5dMnrhhOXo9dk1C-161" style="edgeStyle=orthogonalEdgeStyle;rounded=0;orthogonalLoop=1;jettySize=auto;html=1;entryX=0;entryY=0.75;entryDx=0;entryDy=0;" edge="1" parent="1" source="kLlZz5dMnrhhOXo9dk1C-73" target="kLlZz5dMnrhhOXo9dk1C-90">
          <mxGeometry relative="1" as="geometry" />
        </mxCell>
        <mxCell id="kLlZz5dMnrhhOXo9dk1C-73" value="SPRINGBOOT" style="rounded=0;whiteSpace=wrap;html=1;" vertex="1" parent="1">
          <mxGeometry x="730" y="280" width="180" height="40" as="geometry" />
        </mxCell>
        <mxCell id="kLlZz5dMnrhhOXo9dk1C-85" value="" style="aspect=fixed;sketch=0;html=1;dashed=0;whitespace=wrap;verticalLabelPosition=bottom;verticalAlign=top;fillColor=#2875E2;strokeColor=#ffffff;points=[[0.005,0.63,0],[0.1,0.2,0],[0.9,0.2,0],[0.5,0,0],[0.995,0.63,0],[0.72,0.99,0],[0.5,1,0],[0.28,0.99,0]];shape=mxgraph.kubernetes.icon2;kubernetesLabel=1;prIcon=hpa" vertex="1" parent="1">
          <mxGeometry x="890" y="268" width="25" height="24" as="geometry" />
        </mxCell>
        <mxCell id="kLlZz5dMnrhhOXo9dk1C-88" value="tcp 443 mtls" style="text;html=1;align=center;verticalAlign=middle;whiteSpace=wrap;rounded=0;" vertex="1" parent="1">
          <mxGeometry x="717" y="215" width="60" height="30" as="geometry" />
        </mxCell>
        <mxCell id="kLlZz5dMnrhhOXo9dk1C-83" style="edgeStyle=orthogonalEdgeStyle;rounded=0;orthogonalLoop=1;jettySize=auto;html=1;" edge="1" parent="1" source="kLlZz5dMnrhhOXo9dk1C-71" target="kLlZz5dMnrhhOXo9dk1C-73">
          <mxGeometry relative="1" as="geometry" />
        </mxCell>
        <mxCell id="kLlZz5dMnrhhOXo9dk1C-69" value="tcp 443 mtls" style="text;html=1;align=center;verticalAlign=middle;whiteSpace=wrap;rounded=0;" vertex="1" parent="1">
          <mxGeometry x="490" y="195" width="60" height="30" as="geometry" />
        </mxCell>
        <mxCell id="kLlZz5dMnrhhOXo9dk1C-98" value="ISTIO MESH" style="text;html=1;align=center;verticalAlign=middle;whiteSpace=wrap;rounded=0;" vertex="1" parent="1">
          <mxGeometry x="630" y="960" width="100" height="30" as="geometry" />
        </mxCell>
        <mxCell id="kLlZz5dMnrhhOXo9dk1C-99" value="" style="rounded=0;whiteSpace=wrap;html=1;" vertex="1" parent="1">
          <mxGeometry x="710" y="710" width="255" height="220" as="geometry" />
        </mxCell>
        <mxCell id="kLlZz5dMnrhhOXo9dk1C-100" value="NS FRONTEND" style="text;html=1;align=center;verticalAlign=middle;whiteSpace=wrap;rounded=0;" vertex="1" parent="1">
          <mxGeometry x="505" y="890" width="100" height="30" as="geometry" />
        </mxCell>
        <mxCell id="kLlZz5dMnrhhOXo9dk1C-101" value="NS BACKEND" style="text;html=1;align=center;verticalAlign=middle;whiteSpace=wrap;rounded=0;" vertex="1" parent="1">
          <mxGeometry x="775" y="900" width="100" height="30" as="geometry" />
        </mxCell>
        <mxCell id="kLlZz5dMnrhhOXo9dk1C-102" style="edgeStyle=orthogonalEdgeStyle;rounded=0;orthogonalLoop=1;jettySize=auto;html=1;entryX=0.608;entryY=0.558;entryDx=0;entryDy=0;entryPerimeter=0;" edge="1" parent="1" source="kLlZz5dMnrhhOXo9dk1C-27" target="kLlZz5dMnrhhOXo9dk1C-117">
          <mxGeometry relative="1" as="geometry">
            <mxPoint x="420" y="837" as="sourcePoint" />
            <mxPoint x="485" y="757" as="targetPoint" />
            <Array as="points" />
          </mxGeometry>
        </mxCell>
        <mxCell id="kLlZz5dMnrhhOXo9dk1C-104" style="edgeStyle=orthogonalEdgeStyle;rounded=0;orthogonalLoop=1;jettySize=auto;html=1;entryX=0.5;entryY=0;entryDx=0;entryDy=0;" edge="1" parent="1" source="kLlZz5dMnrhhOXo9dk1C-105" target="kLlZz5dMnrhhOXo9dk1C-106">
          <mxGeometry relative="1" as="geometry" />
        </mxCell>
        <mxCell id="kLlZz5dMnrhhOXo9dk1C-105" value="KRAKEND" style="rounded=0;whiteSpace=wrap;html=1;" vertex="1" parent="1">
          <mxGeometry x="595" y="735" width="80" height="40" as="geometry" />
        </mxCell>
        <mxCell id="kLlZz5dMnrhhOXo9dk1C-106" value="NGINX" style="rounded=0;whiteSpace=wrap;html=1;" vertex="1" parent="1">
          <mxGeometry x="505" y="830" width="80" height="40" as="geometry" />
        </mxCell>
        <mxCell id="kLlZz5dMnrhhOXo9dk1C-107" value="tcp 443 mtls" style="text;html=1;align=center;verticalAlign=middle;whiteSpace=wrap;rounded=0;" vertex="1" parent="1">
          <mxGeometry x="540" y="780" width="60" height="30" as="geometry" />
        </mxCell>
        <mxCell id="kLlZz5dMnrhhOXo9dk1C-108" value="KRAKEND" style="rounded=0;whiteSpace=wrap;html=1;" vertex="1" parent="1">
          <mxGeometry x="850" y="735" width="80" height="40" as="geometry" />
        </mxCell>
        <mxCell id="kLlZz5dMnrhhOXo9dk1C-130" style="edgeStyle=orthogonalEdgeStyle;rounded=0;orthogonalLoop=1;jettySize=auto;html=1;" edge="1" parent="1" source="kLlZz5dMnrhhOXo9dk1C-109" target="kLlZz5dMnrhhOXo9dk1C-128">
          <mxGeometry relative="1" as="geometry" />
        </mxCell>
        <mxCell id="kLlZz5dMnrhhOXo9dk1C-109" value="SPRINGBOOT" style="rounded=0;whiteSpace=wrap;html=1;" vertex="1" parent="1">
          <mxGeometry x="735" y="830" width="180" height="40" as="geometry" />
        </mxCell>
        <mxCell id="kLlZz5dMnrhhOXo9dk1C-110" value="" style="aspect=fixed;sketch=0;html=1;dashed=0;whitespace=wrap;verticalLabelPosition=bottom;verticalAlign=top;fillColor=#2875E2;strokeColor=#ffffff;points=[[0.005,0.63,0],[0.1,0.2,0],[0.9,0.2,0],[0.5,0,0],[0.995,0.63,0],[0.72,0.99,0],[0.5,1,0],[0.28,0.99,0]];shape=mxgraph.kubernetes.icon2;kubernetesLabel=1;prIcon=hpa" vertex="1" parent="1">
          <mxGeometry x="895" y="818" width="25" height="24" as="geometry" />
        </mxCell>
        <mxCell id="kLlZz5dMnrhhOXo9dk1C-111" value="tcp 443 mtls" style="text;html=1;align=center;verticalAlign=middle;whiteSpace=wrap;rounded=0;" vertex="1" parent="1">
          <mxGeometry x="722" y="765" width="60" height="30" as="geometry" />
        </mxCell>
        <mxCell id="kLlZz5dMnrhhOXo9dk1C-112" style="edgeStyle=orthogonalEdgeStyle;rounded=0;orthogonalLoop=1;jettySize=auto;html=1;" edge="1" parent="1" source="kLlZz5dMnrhhOXo9dk1C-108" target="kLlZz5dMnrhhOXo9dk1C-109">
          <mxGeometry relative="1" as="geometry" />
        </mxCell>
        <mxCell id="kLlZz5dMnrhhOXo9dk1C-113" value="tcp 443 mtls" style="text;html=1;align=center;verticalAlign=middle;whiteSpace=wrap;rounded=0;" vertex="1" parent="1">
          <mxGeometry x="515" y="722.84" width="60" height="30" as="geometry" />
        </mxCell>
        <mxCell id="kLlZz5dMnrhhOXo9dk1C-115" value="tcp 443 mtls" style="text;html=1;align=center;verticalAlign=middle;whiteSpace=wrap;rounded=0;" vertex="1" parent="1">
          <mxGeometry x="410" y="815" width="60" height="30" as="geometry" />
        </mxCell>
        <mxCell id="kLlZz5dMnrhhOXo9dk1C-118" style="edgeStyle=orthogonalEdgeStyle;rounded=0;orthogonalLoop=1;jettySize=auto;html=1;" edge="1" parent="1" source="kLlZz5dMnrhhOXo9dk1C-117" target="kLlZz5dMnrhhOXo9dk1C-105">
          <mxGeometry relative="1" as="geometry">
            <Array as="points">
              <mxPoint x="500" y="744" />
              <mxPoint x="500" y="725" />
              <mxPoint x="610" y="725" />
            </Array>
          </mxGeometry>
        </mxCell>
        <mxCell id="kLlZz5dMnrhhOXo9dk1C-117" value="" style="aspect=fixed;sketch=0;html=1;dashed=0;whitespace=wrap;verticalLabelPosition=bottom;verticalAlign=top;fillColor=#2875E2;strokeColor=#ffffff;points=[[0.005,0.63,0],[0.1,0.2,0],[0.9,0.2,0],[0.5,0,0],[0.995,0.63,0],[0.72,0.99,0],[0.5,1,0],[0.28,0.99,0]];shape=mxgraph.kubernetes.icon2;prIcon=ing" vertex="1" parent="1">
          <mxGeometry x="436.08" y="722.84" width="43.92" height="42.16" as="geometry" />
        </mxCell>
        <mxCell id="kLlZz5dMnrhhOXo9dk1C-135" style="edgeStyle=orthogonalEdgeStyle;rounded=0;orthogonalLoop=1;jettySize=auto;html=1;" edge="1" parent="1" source="kLlZz5dMnrhhOXo9dk1C-121" target="kLlZz5dMnrhhOXo9dk1C-108">
          <mxGeometry relative="1" as="geometry" />
        </mxCell>
        <mxCell id="kLlZz5dMnrhhOXo9dk1C-121" value="" style="aspect=fixed;sketch=0;html=1;dashed=0;whitespace=wrap;verticalLabelPosition=bottom;verticalAlign=top;fillColor=#2875E2;strokeColor=#ffffff;points=[[0.005,0.63,0],[0.1,0.2,0],[0.9,0.2,0],[0.5,0,0],[0.995,0.63,0],[0.72,0.99,0],[0.5,1,0],[0.28,0.99,0]];shape=mxgraph.kubernetes.icon2;prIcon=ing" vertex="1" parent="1">
          <mxGeometry x="721.9999999999999" y="722.84" width="43.92" height="42.16" as="geometry" />
        </mxCell>
        <mxCell id="kLlZz5dMnrhhOXo9dk1C-79" value="" style="aspect=fixed;sketch=0;html=1;dashed=0;whitespace=wrap;verticalLabelPosition=bottom;verticalAlign=top;fillColor=#2875E2;strokeColor=#ffffff;points=[[0.005,0.63,0],[0.1,0.2,0],[0.9,0.2,0],[0.5,0,0],[0.995,0.63,0],[0.72,0.99,0],[0.5,1,0],[0.28,0.99,0]];shape=mxgraph.kubernetes.icon2;kubernetesLabel=1;prIcon=hpa" vertex="1" parent="1">
          <mxGeometry x="620" y="180" width="25" height="24" as="geometry" />
        </mxCell>
        <mxCell id="kLlZz5dMnrhhOXo9dk1C-80" value="" style="aspect=fixed;sketch=0;html=1;dashed=0;whitespace=wrap;verticalLabelPosition=bottom;verticalAlign=top;fillColor=#2875E2;strokeColor=#ffffff;points=[[0.005,0.63,0],[0.1,0.2,0],[0.9,0.2,0],[0.5,0,0],[0.995,0.63,0],[0.72,0.99,0],[0.5,1,0],[0.28,0.99,0]];shape=mxgraph.kubernetes.icon2;kubernetesLabel=1;prIcon=hpa" vertex="1" parent="1">
          <mxGeometry x="570" y="271" width="25" height="24" as="geometry" />
        </mxCell>
        <mxCell id="kLlZz5dMnrhhOXo9dk1C-126" style="edgeStyle=orthogonalEdgeStyle;rounded=0;orthogonalLoop=1;jettySize=auto;html=1;" edge="1" parent="1" source="kLlZz5dMnrhhOXo9dk1C-52" target="kLlZz5dMnrhhOXo9dk1C-71">
          <mxGeometry relative="1" as="geometry" />
        </mxCell>
        <mxCell id="kLlZz5dMnrhhOXo9dk1C-52" value="" style="aspect=fixed;sketch=0;html=1;dashed=0;whitespace=wrap;verticalLabelPosition=bottom;verticalAlign=top;fillColor=#2875E2;strokeColor=#ffffff;points=[[0.005,0.63,0],[0.1,0.2,0],[0.9,0.2,0],[0.5,0,0],[0.995,0.63,0],[0.72,0.99,0],[0.5,1,0],[0.28,0.99,0]];shape=mxgraph.kubernetes.icon2;prIcon=ing" vertex="1" parent="1">
          <mxGeometry x="722" y="186" width="30.21" height="29" as="geometry" />
        </mxCell>
        <mxCell id="kLlZz5dMnrhhOXo9dk1C-81" value="" style="aspect=fixed;sketch=0;html=1;dashed=0;whitespace=wrap;verticalLabelPosition=bottom;verticalAlign=top;fillColor=#2875E2;strokeColor=#ffffff;points=[[0.005,0.63,0],[0.1,0.2,0],[0.9,0.2,0],[0.5,0,0],[0.995,0.63,0],[0.72,0.99,0],[0.5,1,0],[0.28,0.99,0]];shape=mxgraph.kubernetes.icon2;kubernetesLabel=1;prIcon=hpa" vertex="1" parent="1">
          <mxGeometry x="920" y="191" width="25" height="24" as="geometry" />
        </mxCell>
        <mxCell id="kLlZz5dMnrhhOXo9dk1C-124" style="edgeStyle=orthogonalEdgeStyle;rounded=0;orthogonalLoop=1;jettySize=auto;html=1;entryX=0.25;entryY=0;entryDx=0;entryDy=0;" edge="1" parent="1" source="kLlZz5dMnrhhOXo9dk1C-58" target="kLlZz5dMnrhhOXo9dk1C-88">
          <mxGeometry relative="1" as="geometry">
            <Array as="points">
              <mxPoint x="386" y="400" />
              <mxPoint x="680" y="400" />
              <mxPoint x="680" y="215" />
            </Array>
          </mxGeometry>
        </mxCell>
        <mxCell id="kLlZz5dMnrhhOXo9dk1C-125" value="tcp 443" style="text;html=1;align=center;verticalAlign=middle;whiteSpace=wrap;rounded=0;" vertex="1" parent="1">
          <mxGeometry x="525" y="390" width="60" height="30" as="geometry" />
        </mxCell>
        <mxCell id="kLlZz5dMnrhhOXo9dk1C-127" value="tcp 443 mtls" style="text;html=1;align=center;verticalAlign=middle;whiteSpace=wrap;rounded=0;" vertex="1" parent="1">
          <mxGeometry x="797.5" y="195" width="60" height="30" as="geometry" />
        </mxCell>
        <mxCell id="kLlZz5dMnrhhOXo9dk1C-128" value="" style="rounded=0;whiteSpace=wrap;html=1;" vertex="1" parent="1">
          <mxGeometry x="1060" y="810" width="200" height="70" as="geometry" />
        </mxCell>
        <mxCell id="kLlZz5dMnrhhOXo9dk1C-129" value="POSTGRESQL CLUSTER (PATRONI)" style="text;html=1;align=center;verticalAlign=middle;whiteSpace=wrap;rounded=0;" vertex="1" parent="1">
          <mxGeometry x="1090" y="830" width="140" height="30.5" as="geometry" />
        </mxCell>
        <mxCell id="kLlZz5dMnrhhOXo9dk1C-131" value="tcp 5432 mtls" style="text;html=1;align=center;verticalAlign=middle;whiteSpace=wrap;rounded=0;" vertex="1" parent="1">
          <mxGeometry x="1000" y="810" width="60" height="30" as="geometry" />
        </mxCell>
        <mxCell id="kLlZz5dMnrhhOXo9dk1C-132" style="edgeStyle=orthogonalEdgeStyle;rounded=0;orthogonalLoop=1;jettySize=auto;html=1;entryX=0.381;entryY=0.587;entryDx=0;entryDy=0;entryPerimeter=0;" edge="1" parent="1" source="kLlZz5dMnrhhOXo9dk1C-27" target="kLlZz5dMnrhhOXo9dk1C-121">
          <mxGeometry relative="1" as="geometry">
            <Array as="points">
              <mxPoint x="386" y="950" />
              <mxPoint x="690" y="950" />
              <mxPoint x="690" y="745" />
              <mxPoint x="722" y="745" />
              <mxPoint x="722" y="748" />
            </Array>
          </mxGeometry>
        </mxCell>
        <mxCell id="kLlZz5dMnrhhOXo9dk1C-136" style="edgeStyle=orthogonalEdgeStyle;rounded=0;orthogonalLoop=1;jettySize=auto;html=1;entryX=0.548;entryY=0.049;entryDx=0;entryDy=0;entryPerimeter=0;" edge="1" parent="1" source="kLlZz5dMnrhhOXo9dk1C-90" target="kLlZz5dMnrhhOXo9dk1C-128">
          <mxGeometry relative="1" as="geometry" />
        </mxCell>
        <mxCell id="kLlZz5dMnrhhOXo9dk1C-137" value="tcp 5432 mtls" style="text;html=1;align=center;verticalAlign=middle;whiteSpace=wrap;rounded=0;" vertex="1" parent="1">
          <mxGeometry x="1170" y="565" width="60" height="30" as="geometry" />
        </mxCell>
        <mxCell id="kLlZz5dMnrhhOXo9dk1C-138" value="" style="rounded=0;whiteSpace=wrap;html=1;" vertex="1" parent="1">
          <mxGeometry x="380" y="520" width="760" height="90" as="geometry" />
        </mxCell>
        <mxCell id="kLlZz5dMnrhhOXo9dk1C-139" value="SHARED" style="text;html=1;align=center;verticalAlign=middle;whiteSpace=wrap;rounded=0;" vertex="1" parent="1">
          <mxGeometry x="692.21" y="584" width="60" height="30" as="geometry" />
        </mxCell>
        <mxCell id="kLlZz5dMnrhhOXo9dk1C-140" value="ELK" style="rounded=0;whiteSpace=wrap;html=1;" vertex="1" parent="1">
          <mxGeometry x="400" y="550" width="55" height="30" as="geometry" />
        </mxCell>
        <mxCell id="kLlZz5dMnrhhOXo9dk1C-141" value="PROMETHEUS" style="rounded=0;whiteSpace=wrap;html=1;" vertex="1" parent="1">
          <mxGeometry x="465" y="550" width="110" height="30" as="geometry" />
        </mxCell>
        <mxCell id="kLlZz5dMnrhhOXo9dk1C-142" value="JAEGER" style="rounded=0;whiteSpace=wrap;html=1;" vertex="1" parent="1">
          <mxGeometry x="585" y="550" width="55" height="30" as="geometry" />
        </mxCell>
        <mxCell id="kLlZz5dMnrhhOXo9dk1C-143" value="NEXUS" style="rounded=0;whiteSpace=wrap;html=1;" vertex="1" parent="1">
          <mxGeometry x="645" y="550" width="55" height="30" as="geometry" />
        </mxCell>
        <mxCell id="kLlZz5dMnrhhOXo9dk1C-145" value="GRAFANA" style="rounded=0;whiteSpace=wrap;html=1;" vertex="1" parent="1">
          <mxGeometry x="710.5" y="550" width="83" height="30" as="geometry" />
        </mxCell>
        <mxCell id="kLlZz5dMnrhhOXo9dk1C-146" style="edgeStyle=orthogonalEdgeStyle;rounded=0;orthogonalLoop=1;jettySize=auto;html=1;entryX=0.029;entryY=0.005;entryDx=0;entryDy=0;entryPerimeter=0;" edge="1" parent="1" source="kLlZz5dMnrhhOXo9dk1C-58" target="kLlZz5dMnrhhOXo9dk1C-138">
          <mxGeometry relative="1" as="geometry" />
        </mxCell>
        <mxCell id="kLlZz5dMnrhhOXo9dk1C-147" style="edgeStyle=orthogonalEdgeStyle;rounded=0;orthogonalLoop=1;jettySize=auto;html=1;entryX=0.377;entryY=0;entryDx=0;entryDy=0;entryPerimeter=0;" edge="1" parent="1" source="kLlZz5dMnrhhOXo9dk1C-64" target="kLlZz5dMnrhhOXo9dk1C-138">
          <mxGeometry relative="1" as="geometry" />
        </mxCell>
        <mxCell id="kLlZz5dMnrhhOXo9dk1C-148" style="edgeStyle=orthogonalEdgeStyle;rounded=0;orthogonalLoop=1;jettySize=auto;html=1;entryX=0.188;entryY=0.01;entryDx=0;entryDy=0;entryPerimeter=0;" edge="1" parent="1" source="kLlZz5dMnrhhOXo9dk1C-65" target="kLlZz5dMnrhhOXo9dk1C-138">
          <mxGeometry relative="1" as="geometry" />
        </mxCell>
        <mxCell id="kLlZz5dMnrhhOXo9dk1C-150" style="edgeStyle=orthogonalEdgeStyle;rounded=0;orthogonalLoop=1;jettySize=auto;html=1;entryX=0.811;entryY=0.005;entryDx=0;entryDy=0;entryPerimeter=0;" edge="1" parent="1" source="kLlZz5dMnrhhOXo9dk1C-71" target="kLlZz5dMnrhhOXo9dk1C-138">
          <mxGeometry relative="1" as="geometry" />
        </mxCell>
        <mxCell id="kLlZz5dMnrhhOXo9dk1C-151" style="edgeStyle=orthogonalEdgeStyle;rounded=0;orthogonalLoop=1;jettySize=auto;html=1;entryX=0.924;entryY=-0.005;entryDx=0;entryDy=0;entryPerimeter=0;" edge="1" parent="1" source="kLlZz5dMnrhhOXo9dk1C-90" target="kLlZz5dMnrhhOXo9dk1C-138">
          <mxGeometry relative="1" as="geometry" />
        </mxCell>
        <mxCell id="kLlZz5dMnrhhOXo9dk1C-152" style="edgeStyle=orthogonalEdgeStyle;rounded=0;orthogonalLoop=1;jettySize=auto;html=1;entryX=0.962;entryY=1.005;entryDx=0;entryDy=0;entryPerimeter=0;" edge="1" parent="1" source="kLlZz5dMnrhhOXo9dk1C-128" target="kLlZz5dMnrhhOXo9dk1C-138">
          <mxGeometry relative="1" as="geometry" />
        </mxCell>
        <mxCell id="kLlZz5dMnrhhOXo9dk1C-153" style="edgeStyle=orthogonalEdgeStyle;rounded=0;orthogonalLoop=1;jettySize=auto;html=1;entryX=0.905;entryY=1.02;entryDx=0;entryDy=0;entryPerimeter=0;exitX=0.5;exitY=0;exitDx=0;exitDy=0;exitPerimeter=0;" edge="1" parent="1" source="kLlZz5dMnrhhOXo9dk1C-168" target="kLlZz5dMnrhhOXo9dk1C-138">
          <mxGeometry relative="1" as="geometry" />
        </mxCell>
        <mxCell id="kLlZz5dMnrhhOXo9dk1C-156" style="edgeStyle=orthogonalEdgeStyle;rounded=0;orthogonalLoop=1;jettySize=auto;html=1;entryX=0.458;entryY=1;entryDx=0;entryDy=0;entryPerimeter=0;" edge="1" parent="1" source="kLlZz5dMnrhhOXo9dk1C-105" target="kLlZz5dMnrhhOXo9dk1C-138">
          <mxGeometry relative="1" as="geometry" />
        </mxCell>
        <mxCell id="kLlZz5dMnrhhOXo9dk1C-157" style="edgeStyle=orthogonalEdgeStyle;rounded=0;orthogonalLoop=1;jettySize=auto;html=1;entryX=0.436;entryY=1.005;entryDx=0;entryDy=0;entryPerimeter=0;" edge="1" parent="1" source="kLlZz5dMnrhhOXo9dk1C-106" target="kLlZz5dMnrhhOXo9dk1C-138">
          <mxGeometry relative="1" as="geometry" />
        </mxCell>
        <mxCell id="kLlZz5dMnrhhOXo9dk1C-158" style="edgeStyle=orthogonalEdgeStyle;rounded=0;orthogonalLoop=1;jettySize=auto;html=1;entryX=0.097;entryY=1.005;entryDx=0;entryDy=0;entryPerimeter=0;" edge="1" parent="1" source="kLlZz5dMnrhhOXo9dk1C-117" target="kLlZz5dMnrhhOXo9dk1C-138">
          <mxGeometry relative="1" as="geometry" />
        </mxCell>
        <mxCell id="kLlZz5dMnrhhOXo9dk1C-159" style="edgeStyle=orthogonalEdgeStyle;rounded=0;orthogonalLoop=1;jettySize=auto;html=1;entryX=0.026;entryY=1;entryDx=0;entryDy=0;entryPerimeter=0;" edge="1" parent="1" source="kLlZz5dMnrhhOXo9dk1C-27" target="kLlZz5dMnrhhOXo9dk1C-138">
          <mxGeometry relative="1" as="geometry" />
        </mxCell>
        <mxCell id="kLlZz5dMnrhhOXo9dk1C-164" value="CA" style="rounded=0;whiteSpace=wrap;html=1;" vertex="1" parent="1">
          <mxGeometry x="803.5" y="550" width="83" height="30" as="geometry" />
        </mxCell>
        <mxCell id="kLlZz5dMnrhhOXo9dk1C-165" value="VAULT" style="rounded=0;whiteSpace=wrap;html=1;" vertex="1" parent="1">
          <mxGeometry x="895" y="550" width="83" height="30" as="geometry" />
        </mxCell>
        <mxCell id="kLlZz5dMnrhhOXo9dk1C-166" value="" style="aspect=fixed;sketch=0;html=1;dashed=0;whitespace=wrap;verticalLabelPosition=bottom;verticalAlign=top;fillColor=#2875E2;strokeColor=#ffffff;points=[[0.005,0.63,0],[0.1,0.2,0],[0.9,0.2,0],[0.5,0,0],[0.995,0.63,0],[0.72,0.99,0],[0.5,1,0],[0.28,0.99,0]];shape=mxgraph.kubernetes.icon2;kubernetesLabel=1;prIcon=hpa" vertex="1" parent="1">
          <mxGeometry x="657.5" y="725.84" width="25" height="24" as="geometry" />
        </mxCell>
        <mxCell id="kLlZz5dMnrhhOXo9dk1C-168" value="" style="aspect=fixed;sketch=0;html=1;dashed=0;whitespace=wrap;verticalLabelPosition=bottom;verticalAlign=top;fillColor=#2875E2;strokeColor=#ffffff;points=[[0.005,0.63,0],[0.1,0.2,0],[0.9,0.2,0],[0.5,0,0],[0.995,0.63,0],[0.72,0.99,0],[0.5,1,0],[0.28,0.99,0]];shape=mxgraph.kubernetes.icon2;kubernetesLabel=1;prIcon=hpa" vertex="1" parent="1">
          <mxGeometry x="920" y="725.84" width="25" height="24" as="geometry" />
        </mxCell>
        <mxCell id="kLlZz5dMnrhhOXo9dk1C-169" value="" style="aspect=fixed;sketch=0;html=1;dashed=0;whitespace=wrap;verticalLabelPosition=bottom;verticalAlign=top;fillColor=#2875E2;strokeColor=#ffffff;points=[[0.005,0.63,0],[0.1,0.2,0],[0.9,0.2,0],[0.5,0,0],[0.995,0.63,0],[0.72,0.99,0],[0.5,1,0],[0.28,0.99,0]];shape=mxgraph.kubernetes.icon2;kubernetesLabel=1;prIcon=hpa" vertex="1" parent="1">
          <mxGeometry x="570" y="821" width="25" height="24" as="geometry" />
        </mxCell>
        <mxCell id="kLlZz5dMnrhhOXo9dk1C-170" style="edgeStyle=orthogonalEdgeStyle;rounded=0;orthogonalLoop=1;jettySize=auto;html=1;entryX=0.594;entryY=0.978;entryDx=0;entryDy=0;entryPerimeter=0;" edge="1" parent="1" source="kLlZz5dMnrhhOXo9dk1C-109" target="kLlZz5dMnrhhOXo9dk1C-138">
          <mxGeometry relative="1" as="geometry">
            <Array as="points">
              <mxPoint x="790" y="720" />
              <mxPoint x="831" y="720" />
            </Array>
          </mxGeometry>
        </mxCell>
      </root>
    </mxGraphModel>
  </diagram>
</mxfile>
